<?xml version="1.0" encoding="UTF-8"?>
<svg xmlns="http://www.w3.org/2000/svg" xmlns:xlink="http://www.w3.org/1999/xlink" width="266pt" height="150pt" viewBox="0 0 266 150" version="1.1">
<defs>
<radialGradient id="radial0" gradientUnits="userSpaceOnUse" cx="731.6215" cy="341.2886" fx="731.6215" fy="341.2886" r="299.2276" >
<stop offset="0" style="stop-color:rgb(100%,87.843137%,65.882353%);stop-opacity:1;"/>
<stop offset="0.8645" style="stop-color:rgb(89.019608%,48.627451%,0%);stop-opacity:1;"/>
</radialGradient>
<filter id="alpha" filterUnits="objectBoundingBox" x="0%" y="0%" width="100%" height="100%">
  <feColorMatrix type="matrix" in="SourceGraphic" values="0 0 0 0 1 0 0 0 0 1 0 0 0 0 1 0 0 0 1 0"/>
</filter>
<mask id="mask0">
  <g filter="url(#alpha)">
<rect x="0" y="0" width="266" height="150" style="fill:rgb(0%,0%,0%);fill-opacity:0.560784;stroke:none;"/>
  </g>
</mask>
<linearGradient id="linear0" gradientUnits="userSpaceOnUse" x1="704.0248" y1="62.5581" x2="577.9061" y2="631.3537" gradientTransform="matrix(0.194729,0,0,0.195312,0,0)">
<stop offset="0.0585" style="stop-color:rgb(58.823529%,5.882353%,5.882353%);stop-opacity:1;"/>
<stop offset="0.2498" style="stop-color:rgb(94.509804%,54.901961%,10.980392%);stop-opacity:0.133333;"/>
<stop offset="0.5379" style="stop-color:rgb(81.568627%,38.823529%,10.980392%);stop-opacity:0.466667;"/>
<stop offset="1" style="stop-color:rgb(58.823529%,10.588235%,10.588235%);stop-opacity:1;"/>
</linearGradient>
<clipPath id="clip1">
  <rect x="0" y="0" width="266" height="150"/>
</clipPath>
<g id="surface5" clip-path="url(#clip1)">
<path style=" stroke:none;fill-rule:nonzero;fill:url(#linear0);" d="M 132.445312 22.925781 C 132.445312 22.925781 135.566406 42.203125 121.605469 51.757812 C 107.640625 61.3125 97.128906 83.347656 107.230469 102.746094 C 120.699219 128.613281 151.992188 122.433594 151.992188 122.433594 C 153.148438 123.746094 126.53125 129.203125 105.800781 122.6875 C 93.6875 118.878906 84.617188 108.839844 82.230469 96.335938 C 76.980469 68.769531 104.445312 49.875 113.882812 45 C 129.609375 36.882812 122.921875 22.925781 122.921875 22.925781 L 121.605469 19.464844 C 121.605469 19.464844 123.78125 19.628906 125.257812 23.050781 L 126.082031 19.796875 C 126.082031 19.796875 127.148438 21.730469 127.3125 24.203125 C 127.3125 24.203125 128.59375 22.035156 127.523438 18.753906 C 127.523438 18.753906 128.714844 19.425781 128.753906 21.445312 C 128.753906 21.445312 129.183594 19.054688 130.425781 17.859375 C 130.421875 17.859375 130.269531 20.453125 132.445312 22.925781 Z M 132.445312 22.925781 "/>
</g>
<mask id="mask1">
  <g filter="url(#alpha)">
<rect x="0" y="0" width="266" height="150" style="fill:rgb(0%,0%,0%);fill-opacity:0.819608;stroke:none;"/>
  </g>
</mask>
<linearGradient id="linear1" gradientUnits="userSpaceOnUse" x1="328.3366" y1="174.1841" x2="759.7977" y2="804.2944" gradientTransform="matrix(0.194729,0,0,0.195312,0,0)">
<stop offset="0.1454" style="stop-color:rgb(58.823529%,5.882353%,5.882353%);stop-opacity:0;"/>
<stop offset="1" style="stop-color:rgb(58.823529%,5.882353%,5.882353%);stop-opacity:1;"/>
</linearGradient>
<clipPath id="clip2">
  <rect x="0" y="0" width="266" height="150"/>
</clipPath>
<g id="surface8" clip-path="url(#clip2)">
<path style=" stroke:none;fill-rule:nonzero;fill:url(#linear1);" d="M 151.992188 122.4375 C 83.773438 132.167969 77.910156 87.425781 96.433594 57.945312 C 87.277344 67.066406 79.160156 80.21875 82.230469 96.335938 C 84.617188 108.84375 93.6875 118.878906 105.800781 122.691406 C 126.53125 129.203125 153.148438 123.75 151.992188 122.4375 Z M 151.992188 122.4375 "/>
</g>
<mask id="mask2">
  <g filter="url(#alpha)">
<rect x="0" y="0" width="266" height="150" style="fill:rgb(0%,0%,0%);fill-opacity:0.709804;stroke:none;"/>
  </g>
</mask>
<clipPath id="clip3">
  <rect x="0" y="0" width="266" height="150"/>
</clipPath>
<g id="surface11" clip-path="url(#clip3)">
<path style=" stroke:none;fill-rule:nonzero;fill:rgb(82.745098%,32.54902%,7.45098%);fill-opacity:1;" d="M 130.023438 40.71875 C 130.046875 43.550781 129.691406 46.382812 129.042969 49.15625 C 128.710938 50.539062 128.261719 51.898438 127.730469 53.226562 L 127.292969 54.207031 L 127.183594 54.453125 L 127.058594 54.691406 L 126.804688 55.167969 C 126.488281 55.8125 126.074219 56.402344 125.691406 57.011719 C 124.09375 59.324219 122.644531 61.734375 121.390625 64.25 C 121.070312 64.871094 120.777344 65.507812 120.472656 66.140625 C 120.1875 66.78125 119.886719 67.414062 119.625 68.066406 C 119.070312 69.355469 118.59375 70.675781 118.144531 72.003906 C 117.265625 74.664062 116.574219 77.390625 116.21875 80.167969 L 116.082031 81.210938 L 115.992188 82.253906 L 115.949219 82.777344 C 115.9375 82.953125 115.933594 83.128906 115.925781 83.300781 L 115.886719 84.347656 C 115.886719 85.746094 115.917969 87.144531 116.097656 88.53125 C 116.683594 94.105469 119.15625 99.410156 122.878906 103.65625 C 120.882812 101.65625 119.199219 99.324219 117.925781 96.777344 C 117.269531 95.507812 116.777344 94.164062 116.328125 92.808594 C 115.941406 91.433594 115.597656 90.039062 115.417969 88.621094 L 115.34375 88.089844 L 115.308594 87.824219 L 115.285156 87.554688 L 115.191406 86.484375 C 115.152344 86.128906 115.15625 85.769531 115.144531 85.414062 C 115.136719 85.054688 115.117188 84.695312 115.121094 84.339844 L 115.144531 83.269531 C 115.152344 83.085938 115.152344 82.910156 115.160156 82.730469 L 115.199219 82.195312 L 115.273438 81.125 L 115.398438 80.0625 L 115.457031 79.527344 C 115.480469 79.351562 115.515625 79.171875 115.542969 79 L 115.714844 77.9375 C 115.78125 77.585938 115.855469 77.242188 115.925781 76.890625 C 116 76.539062 116.0625 76.1875 116.152344 75.84375 L 116.40625 74.800781 C 116.492188 74.453125 116.597656 74.113281 116.691406 73.769531 C 116.871094 73.082031 117.097656 72.402344 117.3125 71.722656 C 119.140625 66.320312 121.785156 61.210938 125.136719 56.613281 C 125.9375 55.484375 126.625 54.269531 127.203125 52.996094 C 127.765625 51.71875 128.246094 50.398438 128.625 49.046875 C 129.386719 46.34375 129.855469 43.542969 130.023438 40.71875 Z M 130.023438 40.71875 "/>
</g>
<mask id="mask3">
  <g filter="url(#alpha)">
<rect x="0" y="0" width="266" height="150" style="fill:rgb(0%,0%,0%);fill-opacity:0.388235;stroke:none;"/>
  </g>
</mask>
<clipPath id="clip4">
  <rect x="0" y="0" width="266" height="150"/>
</clipPath>
<g id="surface14" clip-path="url(#clip4)">
<path style=" stroke:none;fill-rule:nonzero;fill:rgb(82.745098%,32.54902%,7.45098%);fill-opacity:1;" d="M 140 43.125 C 139.910156 43.578125 139.972656 44.046875 140.074219 44.484375 C 140.175781 44.929688 140.347656 45.355469 140.550781 45.761719 C 140.964844 46.574219 141.527344 47.296875 142.136719 47.96875 C 142.75 48.644531 143.433594 49.25 144.140625 49.824219 C 144.492188 50.113281 144.855469 50.390625 145.226562 50.65625 C 145.59375 50.921875 145.972656 51.210938 146.34375 51.488281 C 147.816406 52.628906 149.214844 53.875 150.527344 55.195312 C 151.835938 56.527344 153.058594 57.9375 154.199219 59.414062 C 155.34375 60.890625 156.382812 62.445312 157.335938 64.046875 C 158.289062 65.65625 159.144531 67.320312 159.890625 69.03125 C 161.402344 72.449219 162.453125 76.074219 163.003906 79.777344 C 163.546875 83.480469 163.550781 87.273438 162.90625 90.96875 C 162.589844 92.8125 162.125 94.632812 161.496094 96.398438 C 160.863281 98.15625 160.082031 99.863281 159.167969 101.492188 C 157.335938 104.746094 154.964844 107.679688 152.238281 110.195312 C 149.507812 112.71875 146.460938 114.867188 143.238281 116.671875 C 146.375 114.722656 149.359375 112.515625 151.984375 109.929688 C 153.292969 108.636719 154.523438 107.265625 155.640625 105.804688 C 156.757812 104.351562 157.753906 102.804688 158.628906 101.191406 C 159.5 99.578125 160.238281 97.898438 160.828125 96.164062 C 161.414062 94.429688 161.851562 92.648438 162.148438 90.84375 C 162.441406 89.035156 162.585938 87.203125 162.574219 85.375 C 162.566406 83.546875 162.4375 81.714844 162.164062 79.90625 C 161.890625 78.09375 161.492188 76.304688 160.976562 74.546875 C 160.460938 72.789062 159.824219 71.0625 159.097656 69.382812 C 157.648438 66.015625 155.757812 62.84375 153.550781 59.914062 C 152.445312 58.453125 151.253906 57.058594 149.980469 55.742188 C 148.699219 54.425781 147.34375 53.191406 145.917969 52.042969 C 145.199219 51.488281 144.449219 50.921875 143.746094 50.296875 C 143.046875 49.675781 142.382812 49.007812 141.792969 48.277344 C 141.199219 47.546875 140.6875 46.742188 140.324219 45.871094 C 140.148438 45.4375 140.007812 44.984375 139.9375 44.519531 C 139.871094 44.050781 139.863281 43.570312 140 43.125 Z M 140 43.125 "/>
</g>
<mask id="mask4">
  <g filter="url(#alpha)">
<rect x="0" y="0" width="266" height="150" style="fill:rgb(0%,0%,0%);fill-opacity:0.878431;stroke:none;"/>
  </g>
</mask>
<clipPath id="clip5">
  <rect x="0" y="0" width="266" height="150"/>
</clipPath>
<g id="surface17" clip-path="url(#clip5)">
<path style=" stroke:none;fill-rule:nonzero;fill:rgb(82.745098%,32.54902%,7.45098%);fill-opacity:1;" d="M 172.140625 67.492188 C 172.78125 68.363281 173.34375 69.289062 173.871094 70.238281 C 174.398438 71.1875 174.871094 72.164062 175.3125 73.15625 C 176.175781 75.152344 176.894531 77.21875 177.410156 79.34375 C 177.941406 81.464844 178.246094 83.644531 178.371094 85.835938 C 178.484375 88.03125 178.367188 90.234375 178.058594 92.414062 C 177.402344 96.765625 175.824219 100.96875 173.507812 104.675781 C 171.1875 108.386719 168.230469 111.644531 164.871094 114.351562 C 167.859375 111.238281 170.53125 107.855469 172.625 104.152344 C 172.90625 103.703125 173.121094 103.214844 173.363281 102.742188 L 173.722656 102.03125 L 173.90625 101.679688 C 173.960938 101.5625 174.011719 101.4375 174.0625 101.3125 L 174.691406 99.851562 C 174.800781 99.613281 174.878906 99.359375 174.96875 99.109375 L 175.234375 98.363281 C 175.929688 96.367188 176.480469 94.3125 176.761719 92.21875 C 177.082031 90.128906 177.199219 88.007812 177.132812 85.894531 C 177.082031 83.773438 176.8125 81.660156 176.414062 79.570312 C 175.996094 77.480469 175.429688 75.417969 174.714844 73.398438 C 174.546875 72.890625 174.347656 72.394531 174.160156 71.890625 C 173.960938 71.390625 173.761719 70.894531 173.546875 70.402344 C 173.441406 70.15625 173.335938 69.910156 173.222656 69.667969 C 173.109375 69.421875 172.996094 69.179688 172.878906 68.9375 C 172.648438 68.441406 172.40625 67.960938 172.140625 67.492188 Z M 172.140625 67.492188 "/>
</g>
<mask id="mask5">
  <g filter="url(#alpha)">
<rect x="0" y="0" width="266" height="150" style="fill:rgb(0%,0%,0%);fill-opacity:0.490196;stroke:none;"/>
  </g>
</mask>
<clipPath id="clip6">
  <rect x="0" y="0" width="266" height="150"/>
</clipPath>
<g id="surface20" clip-path="url(#clip6)">
<path style=" stroke:none;fill-rule:nonzero;fill:rgb(82.745098%,32.54902%,7.45098%);fill-opacity:1;" d="M 163.277344 64.78125 C 164.425781 66.0625 165.367188 67.53125 166.140625 69.082031 C 166.914062 70.632812 167.492188 72.28125 167.886719 73.96875 C 168.074219 74.816406 168.210938 75.675781 168.300781 76.539062 C 168.375 77.40625 168.40625 78.273438 168.375 79.140625 C 168.308594 80.875 168 82.59375 167.480469 84.234375 L 167.597656 83.597656 C 167.640625 83.386719 167.6875 83.179688 167.714844 82.964844 C 167.78125 82.539062 167.851562 82.117188 167.886719 81.691406 C 167.992188 80.84375 168.019531 79.984375 168.03125 79.132812 C 168.023438 78.28125 167.984375 77.429688 167.886719 76.585938 C 167.785156 75.738281 167.648438 74.898438 167.460938 74.066406 C 167.082031 72.40625 166.53125 70.78125 165.832031 69.230469 C 165.480469 68.453125 165.09375 67.6875 164.667969 66.945312 C 164.25 66.195312 163.789062 65.472656 163.277344 64.78125 Z M 163.277344 64.78125 "/>
</g>
<mask id="mask6">
  <g filter="url(#alpha)">
<rect x="0" y="0" width="266" height="150" style="fill:rgb(0%,0%,0%);fill-opacity:0.741176;stroke:none;"/>
  </g>
</mask>
<clipPath id="clip7">
  <rect x="0" y="0" width="266" height="150"/>
</clipPath>
<g id="surface23" clip-path="url(#clip7)">
<path style=" stroke:none;fill-rule:nonzero;fill:rgb(82.745098%,32.54902%,7.45098%);fill-opacity:1;" d="M 150.515625 51.757812 C 151.0625 52.175781 151.589844 52.625 152.105469 53.082031 C 152.621094 53.539062 153.128906 54.007812 153.628906 54.488281 C 154.617188 55.453125 155.566406 56.457031 156.480469 57.5 C 157.398438 58.535156 158.261719 59.617188 159.089844 60.730469 C 159.910156 61.84375 160.675781 63.003906 161.398438 64.1875 C 162.117188 65.375 162.769531 66.601562 163.359375 67.859375 C 163.949219 69.113281 164.460938 70.40625 164.886719 71.726562 C 165.328125 73.046875 165.644531 74.398438 165.898438 75.761719 L 166.058594 76.789062 C 166.105469 77.132812 166.132812 77.476562 166.167969 77.820312 C 166.257812 78.507812 166.25 79.203125 166.285156 79.890625 C 166.0625 77.136719 165.492188 74.425781 164.570312 71.835938 C 164.105469 70.546875 163.59375 69.265625 162.988281 68.035156 C 162.390625 66.800781 161.746094 65.585938 161.027344 64.414062 C 159.617188 62.054688 157.988281 59.832031 156.230469 57.714844 C 155.351562 56.65625 154.433594 55.632812 153.480469 54.636719 C 152.53125 53.640625 151.542969 52.675781 150.515625 51.757812 Z M 150.515625 51.757812 "/>
</g>
<mask id="mask7">
  <g filter="url(#alpha)">
<rect x="0" y="0" width="266" height="150" style="fill:rgb(0%,0%,0%);fill-opacity:0.74902;stroke:none;"/>
  </g>
</mask>
<clipPath id="clip8">
  <rect x="0" y="0" width="266" height="150"/>
</clipPath>
<g id="surface26" clip-path="url(#clip8)">
<path style=" stroke:none;fill-rule:nonzero;fill:rgb(82.745098%,32.54902%,7.45098%);fill-opacity:1;" d="M 139.925781 57.027344 C 140.761719 57.890625 141.511719 58.832031 142.21875 59.808594 C 142.921875 60.785156 143.578125 61.796875 144.1875 62.835938 C 145.402344 64.921875 146.421875 67.121094 147.234375 69.398438 C 148.855469 73.957031 149.636719 78.835938 149.472656 83.683594 C 149.476562 84.289062 149.40625 84.894531 149.363281 85.5 L 149.296875 86.40625 C 149.277344 86.710938 149.21875 87.007812 149.183594 87.308594 C 149.101562 87.90625 149.027344 88.511719 148.933594 89.109375 L 148.585938 90.890625 C 148.484375 91.492188 148.308594 92.070312 148.160156 92.65625 L 147.933594 93.539062 L 147.816406 93.976562 C 147.777344 94.125 147.726562 94.265625 147.679688 94.40625 L 147.121094 96.132812 L 146.980469 96.5625 C 146.933594 96.707031 146.871094 96.84375 146.816406 96.988281 L 146.488281 97.832031 C 144.730469 102.332031 142.332031 106.554688 139.472656 110.410156 C 142.03125 106.351562 144.234375 102.078125 145.847656 97.589844 C 146.277344 96.480469 146.59375 95.328125 146.945312 94.195312 C 146.988281 94.050781 147.035156 93.910156 147.070312 93.765625 L 147.386719 92.464844 C 147.523438 91.886719 147.683594 91.3125 147.773438 90.722656 L 148.101562 88.972656 C 148.1875 88.382812 148.257812 87.792969 148.335938 87.207031 C 148.367188 86.910156 148.421875 86.617188 148.4375 86.320312 L 148.503906 85.433594 C 148.539062 84.839844 148.605469 84.25 148.597656 83.65625 C 148.703125 81.28125 148.542969 78.902344 148.207031 76.554688 C 147.878906 74.203125 147.320312 71.882812 146.589844 69.621094 L 146.3125 68.773438 L 146 67.9375 C 145.894531 67.660156 145.796875 67.375 145.683594 67.101562 L 145.34375 66.277344 L 145.171875 65.863281 L 144.988281 65.457031 L 144.617188 64.644531 C 144.496094 64.371094 144.355469 64.109375 144.222656 63.839844 C 144.085938 63.574219 143.964844 63.304688 143.820312 63.042969 C 142.703125 60.933594 141.441406 58.890625 139.925781 57.027344 Z M 139.925781 57.027344 "/>
</g>
<radialGradient id="radial1" gradientUnits="userSpaceOnUse" cx="593.7238" cy="411.5401" fx="579.3776" fy="422.4089" r="118.4473" >
<stop offset="0.5766" style="stop-color:rgb(0%,18.039216%,16.078431%);stop-opacity:1;"/>
<stop offset="0.8904" style="stop-color:rgb(95.686275%,95.686275%,95.686275%);stop-opacity:1;"/>
</radialGradient>
<radialGradient id="radial2" gradientUnits="userSpaceOnUse" cx="736.4905" cy="341.6691" fx="736.4905" fy="341.6691" r="196.0395" gradientTransform="matrix(0.1492,-0.9888,0.9812,0.148,291.397,1019.3478)">
<stop offset="0.6274" style="stop-color:rgb(0%,18.039216%,16.078431%);stop-opacity:1;"/>
<stop offset="0.8269" style="stop-color:rgb(95.686275%,95.686275%,95.686275%);stop-opacity:1;"/>
</radialGradient>
</defs>
<g id="surface1">
<path style="fill-rule:nonzero;fill:url(#radial0);stroke-width:2.2494;stroke-linecap:butt;stroke-linejoin:miter;stroke:rgb(68.627451%,35.686275%,0%);stroke-opacity:1;stroke-miterlimit:10;" d="M 779.046875 236.16 C 750.682155 219.36 682.8997 186.6 719.990484 103.72 C 719.990484 103.72 713.450952 104.78 707.352737 114.48 C 707.352737 114.48 705.447045 106.04 710.502144 99.52 C 710.502144 99.52 696.379964 111.32 695.336848 125.44 C 695.336848 125.44 691.966782 99.72 698.706914 92.12 C 698.706914 92.12 683.521558 99.52 679.509575 117.22 C 679.509575 117.22 667.393386 102.24 669.138598 91.28 C 669.138598 91.28 661.054453 100.92 660.532895 109.64 C 660.512835 110.12 660.512835 110.6 660.532895 111.1 C 660.532895 111.1 660.111637 97.4 653.772703 95.72 C 653.772703 95.72 658.426604 121.22 653.150846 123.76 C 653.150846 123.76 650.623297 102.46 646.811913 101.2 C 646.811913 101.2 644.505022 117.02 642.59933 117.86 C 642.59933 117.86 636.260397 100.78 623.82325 99.52 C 623.82325 99.52 664.324219 177.12 592.610021 216.76 C 592.610021 216.76 397.768063 299.42 408.720777 446.2 C 419.69355 592.96 486.372709 647.8 674.875734 649.48 C 674.875734 649.48 943.357642 653.14 924.9627 431.86 C 925.885456 303.64 826.388275 264.2 779.046875 236.16 Z M 779.046875 236.16 " transform="matrix(0.194729,0,0,0.195312,0,0)"/>
<use xlink:href="#surface5" mask="url(#mask0)"/>
<use xlink:href="#surface8" mask="url(#mask1)"/>
<path style=" stroke:none;fill-rule:nonzero;fill:rgb(95.686275%,56.862745%,10.980392%);fill-opacity:1;" d="M 126.039062 34.296875 C 126.140625 34.699219 126.136719 35.121094 126.117188 35.535156 C 126.09375 35.742188 126.089844 35.953125 126.050781 36.15625 L 125.929688 36.773438 C 125.875 36.972656 125.8125 37.171875 125.75 37.371094 C 125.71875 37.46875 125.691406 37.570312 125.65625 37.671875 L 125.292969 38.539062 C 125.203125 38.726562 125.097656 38.90625 125.003906 39.09375 L 124.703125 39.648438 L 124.359375 40.171875 L 124.011719 40.695312 C 123.894531 40.867188 123.757812 41.023438 123.628906 41.1875 L 123.238281 41.683594 C 123.113281 41.847656 122.984375 42.011719 122.835938 42.160156 L 121.976562 43.078125 C 119.613281 45.445312 116.808594 47.3125 113.945312 48.984375 C 112.535156 49.804688 111.210938 50.777344 109.953125 51.824219 C 108.699219 52.875 107.503906 54.003906 106.371094 55.191406 C 105.253906 56.394531 104.167969 57.628906 103.164062 58.925781 C 102.164062 60.230469 101.195312 61.5625 100.324219 62.953125 C 98.535156 65.710938 97.03125 68.652344 95.808594 71.703125 C 94.558594 74.746094 93.691406 77.9375 93.132812 81.175781 C 92.582031 84.417969 92.445312 87.734375 92.730469 91.015625 C 92.769531 91.429688 92.792969 91.839844 92.84375 92.25 L 93.015625 93.476562 C 93.109375 94.296875 93.308594 95.101562 93.464844 95.914062 C 93.535156 96.320312 93.648438 96.71875 93.757812 97.117188 L 94.074219 98.316406 C 94.121094 98.519531 94.191406 98.710938 94.253906 98.910156 L 94.445312 99.5 L 94.828125 100.6875 L 94.160156 98.941406 C 94.085938 98.75 94.003906 98.554688 93.949219 98.355469 L 93.582031 97.164062 C 93.457031 96.765625 93.328125 96.371094 93.238281 95.964844 C 93.050781 95.15625 92.820312 94.351562 92.691406 93.527344 L 92.46875 92.296875 C 92.402344 91.886719 92.363281 91.472656 92.308594 91.058594 L 92.234375 90.4375 C 92.210938 90.230469 92.179688 90.023438 92.171875 89.8125 L 92.097656 88.5625 L 92.058594 87.9375 L 92.054688 87.3125 L 92.046875 86.058594 C 92.042969 85.847656 92.054688 85.640625 92.066406 85.429688 L 92.097656 84.804688 C 92.121094 84.390625 92.128906 83.96875 92.171875 83.554688 L 92.300781 82.304688 L 92.367188 81.683594 L 92.460938 81.0625 L 92.652344 79.824219 C 92.71875 79.410156 92.8125 79.003906 92.894531 78.59375 L 93.023438 77.976562 L 93.085938 77.671875 L 93.164062 77.367188 L 93.476562 76.152344 C 93.570312 75.742188 93.699219 75.347656 93.820312 74.945312 L 94.1875 73.746094 L 94.601562 72.5625 L 94.808594 71.972656 C 94.882812 71.773438 94.964844 71.582031 95.039062 71.386719 C 96.261719 68.277344 97.785156 65.28125 99.59375 62.472656 C 101.394531 59.65625 103.46875 57.019531 105.78125 54.609375 C 106.945312 53.410156 108.179688 52.277344 109.472656 51.21875 C 109.800781 50.960938 110.125 50.695312 110.460938 50.445312 L 111.476562 49.707031 L 112.53125 49.019531 C 112.886719 48.800781 113.253906 48.59375 113.613281 48.382812 L 115.75 47.144531 C 116.113281 46.945312 116.453125 46.714844 116.792969 46.488281 L 117.828125 45.8125 C 117.996094 45.695312 118.175781 45.59375 118.339844 45.46875 L 118.832031 45.097656 L 119.820312 44.363281 C 119.984375 44.242188 120.140625 44.109375 120.296875 43.972656 L 120.761719 43.574219 L 121.230469 43.171875 C 121.386719 43.039062 121.542969 42.90625 121.6875 42.757812 L 122.5625 41.894531 C 122.714844 41.753906 122.84375 41.597656 122.980469 41.441406 L 123.378906 40.972656 C 123.511719 40.816406 123.652344 40.667969 123.777344 40.503906 L 124.132812 40.003906 L 124.496094 39.503906 L 124.808594 38.972656 C 124.910156 38.796875 125.019531 38.621094 125.117188 38.441406 L 125.375 37.882812 L 125.503906 37.601562 C 125.546875 37.507812 125.574219 37.410156 125.609375 37.3125 L 125.8125 36.730469 L 125.960938 36.132812 C 126.007812 35.929688 126.027344 35.726562 126.058594 35.523438 C 126.09375 35.121094 126.117188 34.703125 126.039062 34.296875 Z M 126.039062 34.296875 "/>
<path style=" stroke:none;fill-rule:nonzero;fill:rgb(82.745098%,32.54902%,7.45098%);fill-opacity:1;" d="M 121.113281 53.570312 C 121.113281 53.570312 83.824219 93.769531 124.234375 116.667969 C 124.230469 116.667969 86.289062 98.875 121.113281 53.570312 Z M 121.113281 53.570312 "/>
<path style=" stroke:none;fill-rule:nonzero;fill:rgb(82.745098%,32.54902%,7.45098%);fill-opacity:1;" d="M 115.199219 107.195312 C 116.011719 108.097656 116.867188 108.945312 117.742188 109.769531 C 118.625 110.59375 119.523438 111.390625 120.445312 112.167969 C 120.90625 112.554688 121.363281 112.941406 121.835938 113.316406 C 122.296875 113.703125 122.777344 114.066406 123.246094 114.445312 C 123.480469 114.636719 123.722656 114.816406 123.960938 115.003906 L 124.675781 115.558594 C 125.15625 115.929688 125.640625 116.289062 126.113281 116.671875 C 125.585938 116.371094 125.070312 116.058594 124.554688 115.734375 C 124.050781 115.402344 123.535156 115.078125 123.046875 114.722656 C 122.050781 114.027344 121.09375 113.28125 120.160156 112.503906 C 119.242188 111.714844 118.34375 110.894531 117.503906 110.011719 C 116.664062 109.136719 115.867188 108.210938 115.199219 107.195312 Z M 115.199219 107.195312 "/>
<use xlink:href="#surface11" mask="url(#mask2)"/>
<use xlink:href="#surface14" mask="url(#mask3)"/>
<use xlink:href="#surface17" mask="url(#mask4)"/>
<path style=" stroke:none;fill-rule:nonzero;fill:rgb(82.745098%,32.54902%,7.45098%);fill-opacity:1;" d="M 155.96875 99.230469 C 155.167969 101.042969 154.175781 102.773438 153.074219 104.421875 C 152.523438 105.25 151.933594 106.054688 151.320312 106.835938 C 150.703125 107.617188 150.050781 108.367188 149.371094 109.097656 C 148.6875 109.820312 147.96875 110.511719 147.21875 111.167969 C 146.464844 111.816406 145.671875 112.425781 144.847656 112.980469 C 144.023438 113.539062 143.152344 114.027344 142.261719 114.460938 C 141.359375 114.875 140.429688 115.226562 139.476562 115.492188 C 140.398438 115.132812 141.304688 114.742188 142.164062 114.269531 C 143.023438 113.792969 143.859375 113.273438 144.65625 112.699219 C 146.246094 111.550781 147.707031 110.226562 149.054688 108.796875 C 150.402344 107.367188 151.644531 105.832031 152.792969 104.230469 C 153.363281 103.429688 153.917969 102.613281 154.453125 101.78125 C 154.988281 100.949219 155.488281 100.097656 155.96875 99.230469 Z M 155.96875 99.230469 "/>
<use xlink:href="#surface20" mask="url(#mask5)"/>
<path style=" stroke:none;fill-rule:nonzero;fill:rgb(82.745098%,32.54902%,7.45098%);fill-opacity:1;" d="M 136.714844 36.269531 C 136.480469 37.074219 136.363281 37.90625 136.324219 38.734375 C 136.273438 39.5625 136.3125 40.394531 136.402344 41.21875 C 136.496094 42.039062 136.644531 42.851562 136.855469 43.65625 C 137.058594 44.453125 137.324219 45.242188 137.632812 46.007812 C 137.777344 46.398438 137.953125 46.773438 138.121094 47.152344 C 138.207031 47.34375 138.300781 47.523438 138.390625 47.710938 C 138.484375 47.898438 138.574219 48.082031 138.675781 48.265625 L 138.96875 48.8125 C 139.070312 48.992188 139.179688 49.167969 139.285156 49.347656 C 139.492188 49.707031 139.71875 50.054688 139.941406 50.40625 C 140.847656 51.800781 141.867188 53.125 142.953125 54.394531 C 141.742188 53.242188 140.625 51.976562 139.65625 50.601562 C 138.6875 49.226562 137.847656 47.75 137.222656 46.175781 C 136.59375 44.605469 136.183594 42.941406 136.0625 41.25 C 136 40.40625 136.007812 39.558594 136.109375 38.71875 C 136.160156 38.296875 136.234375 37.882812 136.328125 37.472656 C 136.429688 37.0625 136.546875 36.65625 136.714844 36.269531 Z M 136.714844 36.269531 "/>
<path style=" stroke:none;fill-rule:nonzero;fill:rgb(82.745098%,32.54902%,7.45098%);fill-opacity:1;" d="M 139.820312 37.675781 C 139.925781 38.675781 140.15625 39.648438 140.476562 40.585938 C 140.796875 41.519531 141.199219 42.421875 141.722656 43.257812 C 142.234375 44.09375 142.824219 44.894531 143.519531 45.59375 C 143.847656 45.964844 144.230469 46.277344 144.597656 46.617188 C 144.773438 46.796875 144.984375 46.925781 145.179688 47.085938 C 145.375 47.238281 145.570312 47.394531 145.769531 47.550781 C 145.546875 47.429688 145.328125 47.308594 145.109375 47.183594 L 144.78125 46.992188 C 144.671875 46.933594 144.570312 46.859375 144.46875 46.785156 C 144.066406 46.484375 143.640625 46.199219 143.28125 45.835938 C 142.515625 45.164062 141.886719 44.347656 141.347656 43.484375 C 141.222656 43.261719 141.085938 43.046875 140.972656 42.816406 L 140.648438 42.125 C 140.550781 41.890625 140.464844 41.648438 140.375 41.410156 C 140.285156 41.171875 140.222656 40.925781 140.152344 40.679688 C 139.882812 39.703125 139.746094 38.683594 139.820312 37.675781 Z M 139.820312 37.675781 "/>
<use xlink:href="#surface23" mask="url(#mask6)"/>
<path style=" stroke:none;fill-rule:nonzero;fill:rgb(82.745098%,32.54902%,7.45098%);fill-opacity:1;" d="M 173.015625 79.898438 C 173.308594 80.992188 173.484375 82.117188 173.613281 83.246094 C 173.652344 83.527344 173.671875 83.8125 173.695312 84.09375 C 173.722656 84.378906 173.742188 84.664062 173.753906 84.945312 C 173.769531 85.230469 173.785156 85.515625 173.792969 85.800781 L 173.808594 86.65625 C 173.816406 88.933594 173.582031 91.21875 173.121094 93.457031 C 172.664062 95.699219 171.949219 97.890625 171.019531 99.984375 L 170.667969 100.769531 C 170.554688 101.035156 170.40625 101.28125 170.277344 101.535156 L 169.875 102.296875 L 169.675781 102.675781 L 169.453125 103.042969 C 169.152344 103.53125 168.863281 104.027344 168.550781 104.507812 L 167.566406 105.917969 C 167.410156 106.160156 167.214844 106.371094 167.039062 106.597656 L 166.5 107.265625 C 166.316406 107.488281 166.148438 107.71875 165.953125 107.929688 L 165.375 108.5625 L 164.792969 109.195312 C 164.695312 109.296875 164.601562 109.40625 164.5 109.507812 L 164.191406 109.804688 L 162.953125 110.992188 C 162.851562 111.09375 162.742188 111.183594 162.628906 111.273438 L 162.300781 111.546875 L 161.644531 112.097656 L 160.984375 112.644531 C 160.761719 112.820312 160.527344 112.984375 160.300781 113.15625 L 158.917969 114.164062 C 158.445312 114.484375 157.957031 114.777344 157.480469 115.085938 C 153.625 117.511719 149.425781 119.335938 145.09375 120.625 C 149.304688 118.988281 153.378906 117.007812 157.109375 114.507812 C 157.570312 114.191406 158.039062 113.886719 158.496094 113.558594 L 159.832031 112.542969 C 160.054688 112.371094 160.28125 112.207031 160.496094 112.027344 L 161.128906 111.480469 L 161.765625 110.929688 L 162.082031 110.660156 C 162.191406 110.570312 162.296875 110.476562 162.390625 110.375 C 164.027344 108.851562 165.527344 107.183594 166.863281 105.394531 C 168.203125 103.609375 169.324219 101.664062 170.265625 99.640625 C 171.210938 97.617188 171.929688 95.488281 172.453125 93.308594 L 172.644531 92.492188 L 172.800781 91.664062 C 172.914062 91.117188 172.988281 90.558594 173.070312 90 L 173.132812 89.585938 L 173.179688 89.167969 L 173.269531 88.328125 C 173.296875 88.050781 173.308594 87.769531 173.332031 87.488281 C 173.347656 87.207031 173.375 86.929688 173.378906 86.648438 C 173.4375 85.523438 173.421875 84.394531 173.375 83.265625 C 173.347656 82.703125 173.304688 82.140625 173.246094 81.578125 C 173.195312 81.015625 173.117188 80.453125 173.015625 79.898438 Z M 173.015625 79.898438 "/>
<use xlink:href="#surface26" mask="url(#mask7)"/>
<path style=" stroke:none;fill-rule:nonzero;fill:rgb(11.372549%,11.372549%,10.588235%);fill-opacity:1;" d="M 100.300781 73.726562 C 99.871094 73.515625 99.492188 73.273438 99.117188 73 C 98.75 72.726562 98.402344 72.421875 98.085938 72.089844 C 97.777344 71.753906 97.503906 71.382812 97.28125 70.984375 C 97.066406 70.582031 96.929688 70.144531 96.851562 69.699219 C 96.96875 70.136719 97.140625 70.550781 97.382812 70.921875 C 97.632812 71.292969 97.925781 71.625 98.253906 71.921875 C 98.582031 72.214844 98.941406 72.472656 99.316406 72.703125 C 99.691406 72.929688 100.089844 73.140625 100.480469 73.292969 Z M 100.300781 73.726562 "/>
<path style=" stroke:none;fill-rule:nonzero;fill:rgb(11.372549%,11.372549%,10.588235%);fill-opacity:1;" d="M 99.878906 74.1875 C 99.335938 74.085938 98.871094 73.894531 98.410156 73.664062 C 97.953125 73.429688 97.53125 73.148438 97.132812 72.835938 C 96.742188 72.507812 96.371094 72.167969 96.042969 71.785156 C 95.871094 71.601562 95.730469 71.394531 95.570312 71.203125 C 95.421875 71 95.285156 70.789062 95.140625 70.585938 C 95.296875 70.78125 95.449219 70.976562 95.613281 71.164062 C 95.789062 71.34375 95.941406 71.539062 96.128906 71.703125 C 96.480469 72.054688 96.871094 72.359375 97.269531 72.640625 C 97.679688 72.914062 98.109375 73.152344 98.554688 73.335938 C 98.777344 73.433594 99.011719 73.511719 99.238281 73.578125 C 99.46875 73.640625 99.714844 73.695312 99.925781 73.714844 Z M 99.878906 74.1875 "/>
<path style=" stroke:none;fill-rule:nonzero;fill:rgb(11.372549%,11.372549%,10.588235%);fill-opacity:1;" d="M 99.113281 74.957031 C 98.449219 74.863281 97.839844 74.683594 97.238281 74.445312 C 96.640625 74.203125 96.074219 73.898438 95.550781 73.523438 C 95.285156 73.34375 95.050781 73.125 94.804688 72.921875 C 94.691406 72.808594 94.582031 72.6875 94.472656 72.578125 C 94.417969 72.515625 94.359375 72.460938 94.308594 72.402344 L 94.160156 72.214844 C 93.746094 71.726562 93.457031 71.15625 93.191406 70.585938 C 93.492188 71.140625 93.816406 71.6875 94.25 72.136719 L 94.40625 72.3125 C 94.460938 72.367188 94.519531 72.421875 94.574219 72.472656 C 94.691406 72.578125 94.804688 72.6875 94.921875 72.789062 C 95.171875 72.976562 95.410156 73.171875 95.679688 73.328125 C 96.207031 73.65625 96.769531 73.917969 97.355469 74.109375 C 97.9375 74.304688 98.558594 74.4375 99.144531 74.484375 Z M 99.113281 74.957031 "/>
<path style=" stroke:none;fill-rule:nonzero;fill:rgb(11.372549%,11.372549%,10.588235%);fill-opacity:1;" d="M 157.640625 72.40625 C 158.03125 72.257812 158.429688 72.046875 158.804688 71.820312 C 159.179688 71.589844 159.539062 71.328125 159.867188 71.039062 C 160.195312 70.742188 160.488281 70.40625 160.738281 70.039062 C 160.980469 69.664062 161.152344 69.25 161.269531 68.816406 C 161.191406 69.257812 161.054688 69.695312 160.839844 70.101562 C 160.617188 70.5 160.347656 70.867188 160.035156 71.207031 C 159.71875 71.539062 159.371094 71.84375 159.003906 72.113281 C 158.628906 72.386719 158.25 72.632812 157.820312 72.84375 Z M 157.640625 72.40625 "/>
<path style=" stroke:none;fill-rule:nonzero;fill:rgb(11.372549%,11.372549%,10.588235%);fill-opacity:1;" d="M 158.195312 72.832031 C 158.410156 72.8125 158.652344 72.757812 158.882812 72.695312 C 159.109375 72.628906 159.34375 72.554688 159.566406 72.453125 C 160.011719 72.269531 160.441406 72.03125 160.851562 71.757812 C 161.253906 71.476562 161.644531 71.171875 161.992188 70.820312 C 162.179688 70.652344 162.335938 70.460938 162.507812 70.28125 C 162.671875 70.09375 162.824219 69.894531 162.980469 69.703125 C 162.839844 69.90625 162.703125 70.117188 162.550781 70.320312 C 162.394531 70.511719 162.25 70.71875 162.078125 70.902344 C 161.75 71.285156 161.378906 71.625 160.992188 71.953125 C 160.59375 72.265625 160.167969 72.546875 159.710938 72.78125 C 159.25 73.007812 158.785156 73.203125 158.242188 73.304688 Z M 158.195312 72.832031 "/>
<path style=" stroke:none;fill-rule:nonzero;fill:rgb(11.372549%,11.372549%,10.588235%);fill-opacity:1;" d="M 158.972656 73.601562 C 159.5625 73.554688 160.179688 73.417969 160.761719 73.226562 C 161.347656 73.03125 161.914062 72.769531 162.4375 72.441406 C 162.707031 72.285156 162.949219 72.089844 163.199219 71.902344 C 163.316406 71.800781 163.429688 71.695312 163.542969 71.585938 C 163.601562 71.53125 163.660156 71.484375 163.710938 71.429688 L 163.867188 71.25 C 164.304688 70.800781 164.628906 70.253906 164.929688 69.703125 C 164.664062 70.273438 164.371094 70.84375 163.957031 71.328125 L 163.808594 71.515625 C 163.757812 71.578125 163.699219 71.632812 163.644531 71.691406 C 163.535156 71.804688 163.425781 71.921875 163.3125 72.035156 C 163.070312 72.242188 162.835938 72.460938 162.566406 72.636719 C 162.046875 73.011719 161.480469 73.320312 160.882812 73.558594 C 160.28125 73.796875 159.671875 73.976562 159.007812 74.070312 Z M 158.972656 73.601562 "/>
<path style=" stroke:none;fill-rule:nonzero;fill:rgb(100%,99.607843%,91.372549%);fill-opacity:1;" d="M 98.820312 75.449219 C 101.542969 69.890625 114.808594 62.6875 123.386719 78.070312 C 133.578125 96.355469 111.558594 107.691406 103.589844 101.464844 C 98.386719 97.402344 91.632812 90.125 98.820312 75.449219 Z M 98.820312 75.449219 "/>
<path style="fill-rule:nonzero;fill:rgb(100%,99.607843%,91.372549%);fill-opacity:1;stroke-width:1.8148;stroke-linecap:butt;stroke-linejoin:miter;stroke:rgb(11.372549%,11.372549%,10.588235%);stroke-opacity:1;stroke-miterlimit:10;" d="M 700.452126 381.6 C 700.452126 381.6 741.053395 322.22 802.797815 366.16 C 864.522175 410.12 834.973919 494.98 825.26492 503.06 C 817.220894 509.78 769.919613 549.7 719.248267 503.06 C 668.576921 456.42 700.452126 381.6 700.452126 381.6 Z M 700.452126 381.6 " transform="matrix(0.194729,0,0,0.195312,0,0)"/>
<path style="fill-rule:nonzero;fill:url(#radial1);stroke-width:1.8148;stroke-linecap:butt;stroke-linejoin:miter;stroke:rgb(11.372549%,11.372549%,11.372549%);stroke-opacity:1;stroke-miterlimit:10;" d="M 623.883429 384.64 C 623.883429 384.64 589.681273 361.12 560.153078 397.36 C 530.624883 433.6 558.367746 485.74 569.300399 493 C 577.264186 498.26 601.356144 512.64 637.443932 483.52 C 637.463992 483.52 665.146675 439.68 623.883429 384.64 Z M 623.883429 384.64 " transform="matrix(0.194729,0,0,0.195312,0,0)"/>
<path style="fill-rule:nonzero;fill:url(#radial2);stroke-width:1.8148;stroke-linecap:butt;stroke-linejoin:miter;stroke:rgb(11.372549%,11.372549%,10.588235%);stroke-opacity:1;stroke-miterlimit:10;" d="M 698.085056 388.08 C 698.085056 388.08 731.645295 354.3 763.861519 388.08 C 796.077743 421.86 783.520236 476.04 768.736078 486.28 C 755.636954 495.34 727.874031 511.52 701.415002 480.1 C 701.415002 480.12 678.606879 442.56 698.085056 388.08 Z M 698.085056 388.08 " transform="matrix(0.194729,0,0,0.195312,0,0)"/>
<path style="fill-rule:nonzero;fill:rgb(100%,99.607843%,91.372549%);fill-opacity:1;stroke-width:2.4198;stroke-linecap:butt;stroke-linejoin:miter;stroke:rgb(11.372549%,11.372549%,10.588235%);stroke-opacity:1;stroke-miterlimit:10;" d="M 630.362782 397.6 C 623.261572 393.36 593.031279 394.68 599.731291 428.56 C 606.451363 462.46 646.370594 442.32 645.548138 430.88 C 644.886161 421.6 635.698719 400.76 630.362782 397.6 Z M 630.362782 397.6 " transform="matrix(0.194729,0,0,0.195312,0,0)"/>
<path style="fill-rule:nonzero;fill:rgb(100%,99.607843%,91.372549%);fill-opacity:1;stroke-width:1.2099;stroke-linecap:butt;stroke-linejoin:miter;stroke:rgb(11.372549%,11.372549%,10.588235%);stroke-opacity:1;stroke-miterlimit:10;" d="M 755.295935 413.68 C 752.226768 402.4 775.014832 374.98 792.968456 393.56 C 814.272086 415.6 782.978618 431.74 772.206444 432.28 C 765.92769 432.56 758.164503 424.2 755.295935 413.68 Z M 755.295935 413.68 " transform="matrix(0.194729,0,0,0.195312,0,0)"/>
<path style="fill:none;stroke-width:1.8148;stroke-linecap:butt;stroke-linejoin:miter;stroke:rgb(11.372549%,11.372549%,10.588235%);stroke-opacity:1;stroke-miterlimit:10;" d="M 507.47574 386.3 C 521.457501 357.84 589.580974 320.96 633.632548 399.72 C 685.968867 493.34 572.891124 551.38 531.968897 519.5 C 505.24909 498.7 470.565496 461.44 507.47574 386.3 Z M 507.47574 386.3 " transform="matrix(0.194729,0,0,0.195312,0,0)"/>
<path style="fill-rule:nonzero;fill:rgb(100%,99.607843%,92.156863%);fill-opacity:1;stroke-width:2.0987;stroke-linecap:butt;stroke-linejoin:miter;stroke:rgb(11.372549%,11.372549%,10.588235%);stroke-opacity:1;stroke-miterlimit:10;" d="M 648.296346 535.48 C 648.296346 535.48 647.654429 545.58 648.296346 547.08 C 648.958324 548.56 658.647263 548.66 660.332296 548.26 C 662.037388 547.88 660.974213 538.34 660.974213 538.34 L 648.015508 534 Z M 648.296346 535.48 " transform="matrix(0.194729,0,0,0.195312,0,0)"/>
<path style=" stroke:none;fill-rule:nonzero;fill:rgb(11.372549%,11.372549%,10.588235%);fill-opacity:1;" d="M 124.308594 104.367188 C 124.445312 104.191406 124.542969 104.03125 124.636719 103.871094 C 124.730469 103.710938 124.808594 103.550781 124.886719 103.386719 C 124.953125 103.21875 125.023438 103.046875 125.085938 102.867188 C 125.125 102.777344 125.148438 102.683594 125.1875 102.589844 C 125.222656 102.496094 125.253906 102.398438 125.308594 102.292969 C 125.359375 102.394531 125.390625 102.496094 125.417969 102.605469 C 125.4375 102.710938 125.457031 102.820312 125.453125 102.929688 C 125.453125 103.148438 125.402344 103.371094 125.316406 103.574219 C 125.222656 103.78125 125.089844 103.96875 124.917969 104.113281 C 124.746094 104.253906 124.535156 104.363281 124.308594 104.367188 Z M 124.308594 104.367188 "/>
<path style=" stroke:none;fill-rule:nonzero;fill:rgb(11.372549%,11.372549%,10.588235%);fill-opacity:1;" d="M 134.632812 102.261719 C 134.730469 102.460938 134.824219 102.625 134.925781 102.78125 C 135.023438 102.941406 135.128906 103.085938 135.238281 103.226562 C 135.355469 103.367188 135.472656 103.503906 135.605469 103.644531 C 135.664062 103.71875 135.738281 103.78125 135.800781 103.863281 C 135.871094 103.9375 135.945312 104.011719 136.007812 104.109375 C 135.898438 104.109375 135.789062 104.085938 135.683594 104.0625 C 135.582031 104.03125 135.476562 103.992188 135.382812 103.941406 C 135.1875 103.839844 135.015625 103.695312 134.871094 103.523438 C 134.734375 103.34375 134.628906 103.136719 134.582031 102.917969 C 134.535156 102.699219 134.53125 102.464844 134.632812 102.261719 Z M 134.632812 102.261719 "/>
<path style="fill:none;stroke-width:3.6297;stroke-linecap:butt;stroke-linejoin:miter;stroke:rgb(11.372549%,11.372549%,10.588235%);stroke-opacity:1;stroke-miterlimit:10;" d="M 642.358611 529.7 C 642.358611 529.7 669.299078 553.22 692.889538 529.7 " transform="matrix(0.194729,0,0,0.195312,0,0)"/>
</g>
</svg>
